<svg version="1.1" id="Capa_1" xmlns="http://www.w3.org/2000/svg" x="0" y="0" viewBox="0 0 612 612" xml:space="preserve"><path d="M74.26 362.62v100.233c0 17.374 103.612 31.458 231.426 31.458 127.813 0 231.426-14.083 231.426-31.457v-100.09c18.127-3.717 31.76-19.76 31.76-38.986V218.545c0-21.302-16.735-38.695-37.776-39.75C507.27 76.34 415.394 0 305.686 0h-.002C195.96 0 104.074 76.363 80.264 178.844c-20.738 1.372-37.136 18.617-37.136 39.7v105.232c0 19.003 13.32 34.884 31.13 38.843zm50.29-120.803c0-46.037 37.32-83.358 83.357-83.358h196.186c46.037 0 83.357 37.32 83.357 83.357v50.654c-16.326 18.068-32.65 36.135-48.977 54.2h-77.437c-4.98-7.34-13.39-12.164-22.93-12.164-15.295 0-27.692 12.398-27.692 27.69s12.398 27.692 27.69 27.692c8.285 0 15.712-3.642 20.787-9.405h85.734c8.71 0 11.068-2.954 15.327-7.213l27.478-30.407c-.95 45.213-37.894 81.573-83.335 81.573H207.907c-46.037 0-83.357-37.32-83.357-83.358v-99.26z"/><path d="M552.824 493.765c-31.59 14.492-130.282 25.063-247.138 25.063-116.857 0-215.55-10.572-247.138-25.063-4.952-2.27-10.587 1.41-10.587 6.857v76.345C47.96 596.315 163.35 612 305.687 612c142.337 0 257.724-15.685 257.724-35.033V500.62c0-5.446-5.635-9.126-10.586-6.855z"/></svg>